<?xml version="1.0" standalone="no"?><!DOCTYPE svg PUBLIC "-//W3C//DTD SVG 1.1//EN" "http://www.w3.org/Graphics/SVG/1.1/DTD/svg11.dtd"><svg t="1704782486577" class="icon" viewBox="0 0 1024 1024" version="1.1" xmlns="http://www.w3.org/2000/svg" p-id="5122" xmlns:xlink="http://www.w3.org/1999/xlink" width="200" height="200"><path d="M727.9 935.2H112.8c-31.7 0-57.4-24.1-57.4-53.8V293c0-29.7 25.8-53.8 57.4-53.8h615.1c31.7 0 57.4 24.1 57.4 53.8v588.4c0.1 29.7-25.7 53.8-57.4 53.8z m-615.1-682c-23.9 0-43.4 17.8-43.4 39.8v588.4c0 21.9 19.4 39.8 43.4 39.8h615.1c23.9 0 43.4-17.8 43.4-39.8V293c0-21.9-19.4-39.8-43.4-39.8H112.8z" fill="#093A94" p-id="5123"></path><path d="M727.9 945.2H112.8c-37.2 0-67.4-28.6-67.4-63.8V293c0-35.2 30.3-63.8 67.4-63.8h615.1c37.2 0 67.4 28.6 67.4 63.8v588.4c0.1 35.2-30.2 63.8-67.4 63.8z m-616-682c-18 0.4-32.5 13.6-32.5 29.8v588.4c0 16.4 15 29.8 33.4 29.8h615.1c18.4 0 33.4-13.4 33.4-29.8V293c0-16.4-15-29.8-33.4-29.8h-616z" fill="#093A94" p-id="5124"></path><path d="M909.5 753.2H771.3v-14h138.3c23.9 0 43.4-17.8 43.4-39.8V111c0-21.9-19.5-39.8-43.4-39.8H294.5c-23.9 0-43.4 17.8-43.4 39.8v140.4h-14V111c0-29.7 25.7-53.8 57.4-53.8h615.1c31.7 0 57.4 24.1 57.4 53.8v588.4c0 29.7-25.8 53.8-57.5 53.8z" fill="#093A94" p-id="5125"></path><path d="M909.5 763.2H761.3v-34h148.3c18.4 0 33.4-13.4 33.4-29.8V111c0-16.4-15-29.8-33.4-29.8H294.5C276 81.2 261 94.6 261 111v150.4h-34V111c0-35.2 30.2-63.8 67.4-63.8h615.1c37.2 0 67.4 28.6 67.4 63.8v588.4c0.1 35.2-30.2 63.8-67.4 63.8z" fill="#093A94" p-id="5126"></path><path d="M255.7 588.1c0 37.4-7.9 64-23.7 79.8s-37.1 23.8-63.9 23.8h-41.4V483.3H168c30 0 52.2 8.1 66.4 24.4 14.2 16.2 21.3 43.1 21.3 80.4z m-29.2 0c0-30-4.9-51.2-14.6-63.4-9.7-12.2-24.4-18.3-43.8-18.3h-13.4v162.1H168c19.5 0 34.1-5.9 43.8-17.7 9.8-11.7 14.7-32.6 14.7-62.7zM418.9 691.7h-29.2l-17-64.6H319l-17 64.6h-29.2l60.9-210.8H358l60.9 210.8zM366.5 604L347 529.6h-2.4L325.1 604h41.4zM563.8 506.5h-48.7v185.3h-28V506.5h-48.7v-23.2h125.4v23.2zM730.6 691.7h-29.2l-17-64.6h-53.6l-17 64.6h-29.2l60.9-210.8h24.4l60.7 210.8zM678.3 604l-19.5-74.3h-2.4L636.8 604h41.5z" fill="#093A94" p-id="5127"></path></svg>